<svg width="407" height="217" viewBox="0 0 407 217" fill="none" xmlns="http://www.w3.org/2000/svg">
<path d="M0.425782 1.09998L37.3258 1.99999L86.8258 0.799986C130.026 0.799986 151.626 16.7 151.626 48.5C151.626 71.5 139.426 88.1 115.026 98.3C114.626 98.3 114.426 98.5 114.426 98.9C114.426 99.3 114.626 99.5 115.026 99.5C127.426 100.9 139.226 106.5 150.426 116.3C161.626 126.1 167.226 138.3 167.226 152.9C167.226 173.1 160.326 188.7 146.526 199.7C132.926 210.7 112.926 216.2 86.5258 216.2L37.6258 215L4.32578 215.9L1.92578 202.7C13.1258 201.5 19.9258 200.4 22.3258 199.4C24.9258 198.2 26.2258 195.4 26.2258 191V26C26.2258 22 24.7258 19.3 21.7258 17.9C18.9258 16.3 12.7258 15.1 3.12578 14.3L0.425782 1.09998ZM77.8258 14.9C65.0258 14.9 57.7258 15.5 55.9258 16.7C54.3258 17.7 53.5258 18.8 53.5258 20V95.3C53.5258 97.3 54.5258 98.4 56.5258 98.6H73.9258C89.1258 98.6 100.626 94.7 108.426 86.9C116.226 79.1 120.126 68.4 120.126 54.8C120.126 41 116.226 30.9 108.426 24.5C100.826 18.1 90.6258 14.9 77.8258 14.9ZM53.5258 182.6C53.5258 196 62.8258 202.7 81.4258 202.7C100.226 202.7 113.626 198.4 121.626 189.8C129.826 181 133.926 170.4 133.926 158C133.926 140.8 128.726 128.9 118.326 122.3C107.926 115.7 94.2258 112.4 77.2258 112.4H56.5258C54.5258 112.4 53.5258 113.5 53.5258 115.7V182.6ZM223.354 215L190.054 215.9L187.654 202.7C198.854 201.5 205.654 200.4 208.054 199.4C210.654 198.2 211.954 195.4 211.954 191V26.3C211.954 22.3 210.454 19.6 207.454 18.2C204.654 16.6 198.454 15.4 188.854 14.6L186.154 1.4L223.054 2.29998L285.154 1.69999C323.354 1.69999 353.154 10.8 374.554 29C395.954 47.2 406.654 72.7 406.654 105.5C406.654 138.3 395.654 164.9 373.654 185.3C351.654 205.7 320.454 215.9 280.054 215.9C280.054 215.9 261.154 215.6 223.354 215ZM288.454 200.6C316.454 200.6 337.854 192.8 352.654 177.2C367.654 161.4 375.154 138.8 375.154 109.4C375.154 79.8 366.654 56.8 349.654 40.4C332.854 24 308.854 15.8 277.654 15.8H254.554C244.354 15.8 239.254 17.8 239.254 21.8V176.3C239.254 180.3 239.354 183.2 239.554 185C239.954 186.8 240.854 189 242.254 191.6C243.854 194 246.354 195.7 249.754 196.7C258.554 199.3 271.454 200.6 288.454 200.6Z" fill="white"/>
</svg>
